# File created by Blade
# Date/Time:  Wed Sep 24 20:26:02 2014
# Frame Rate: 120.000 fps
#------------------------------------------------------
:FULLY-SPECIFIED
:DEGREES
1232
root -6.390728 32.824945 -1.961274 369.901632 -69.592459 -361.084654
Spine -11.413111 9.140078 1.077365
Head -5.935861 42.951471 5.308298
LeftShoulder -18.933990 19.943516 19.968535
LeftArm 18.752588 -16.903707 -31.167033
LeftForeArm 15.513588 -0.000000 14.206689
LeftHand -28.509765 0.000000 -4.899289
LeftHandThumb1 -26.253704 0.000000 33.147579
RightShoulder -21.132422 11.397059 -38.865436
RightArm -17.477993 4.321460 31.337131
RightForeArm -31.077630 -0.000000 16.552357
RightHand -15.180822 -0.000000 3.937765
RightHandThumb1 -24.326973 -0.000000 -32.862282
LeftUpLeg -6.099294 1.009839 -0.160058
LeftLeg -3.912456 -0.000000 0.000000
LeftFoot -4.255941 0.538652 -19.073948
LeftToeBase 5.449248 -0.000000 -0.000000
RightUpLeg -1.370663 -8.922296 -1.228673
RightLeg 0.561645 -0.000000 -0.000000
RightFoot -10.801670 -5.002104 -1.356151
RightToeBase -1.443749 -0.000000 0.000000
1233
root -6.399380 32.824033 -1.968099 369.815427 -69.424810 -361.035583
Spine -11.311394 8.818395 1.102426
Head -6.098966 42.988904 5.438528
LeftShoulder -18.968423 19.554250 20.545139
LeftArm 18.100028 -17.078878 -30.012319
LeftForeArm 15.680478 -0.000000 14.261109
LeftHand -28.672952 -0.000000 -4.973932
LeftHandThumb1 -26.253704 0.000000 33.147579
RightShoulder -21.211219 11.557705 -39.302431
RightArm -17.524808 4.519099 29.868734
RightForeArm -31.573131 -0.000000 16.499064
RightHand -15.010837 -0.000000 3.753325
RightHandThumb1 -24.326973 -0.000000 -32.862282
LeftUpLeg -6.144657 0.992365 -0.143816
LeftLeg -3.747031 -0.000000 0.000000
LeftFoot -4.283638 0.340290 -19.085784
LeftToeBase 5.504896 -0.000000 -0.000000
RightUpLeg -1.325652 -9.132928 -1.205504
RightLeg 0.614232 -0.000000 -0.000000
RightFoot -10.862760 -4.991405 -1.383729
RightToeBase -1.373828 -0.000000 0.000000
1234
root -6.407538 32.823186 -1.973793 369.758761 -69.301822 -361.004250
Spine -11.230675 8.526173 1.132916
Head -6.219632 43.062054 5.559959
LeftShoulder -19.057149 19.308401 21.093527
LeftArm 17.654929 -17.342696 -29.081852
LeftForeArm 16.012261 -0.000000 14.227972
LeftHand -28.496353 -0.000000 -5.382521
LeftHandThumb1 -26.253704 0.000000 33.147579
RightShoulder -21.287049 11.714474 -39.703946
RightArm -17.500161 4.570624 28.544761
RightForeArm -31.815033 -0.000000 16.357285
RightHand -15.214573 0.000000 3.734858
RightHandThumb1 -24.326973 -0.000000 -32.862282
LeftUpLeg -6.167470 0.904337 -0.119532
LeftLeg -3.652838 -0.000000 0.000000
LeftFoot -4.314245 0.277956 -19.101657
LeftToeBase 5.570386 -0.000000 -0.000000
RightUpLeg -1.293821 -9.256770 -1.181942
RightLeg 0.652905 -0.000000 -0.000000
RightFoot -10.896742 -5.024119 -1.419212
RightToeBase -1.443084 -0.000000 0.000000
1235
root -6.417093 32.823621 -1.978245 369.715474 -69.229283 -361.003736
Spine -11.133655 8.319929 1.163532
Head -6.334265 43.070835 5.676862
LeftShoulder -19.111515 19.069780 21.583182
LeftArm 17.314091 -17.624863 -28.210168
LeftForeArm 16.405418 -0.000000 14.010524
LeftHand -28.241039 0.000000 -5.733273
LeftHandThumb1 -26.253704 0.000000 33.147579
RightShoulder -21.367734 11.784789 -40.096311
RightArm -17.527223 4.719628 27.375894
RightForeArm -32.080786 -0.000000 16.339077
RightHand -15.312079 -0.000000 3.761375
RightHandThumb1 -24.326973 -0.000000 -32.862282
LeftUpLeg -6.159287 0.839830 -0.091758
LeftLeg -3.575467 -0.000000 0.000000
LeftFoot -4.336504 0.258144 -19.128147
LeftToeBase 5.554123 -0.000000 -0.000000
RightUpLeg -1.249413 -9.289690 -1.157928
RightLeg 0.693229 -0.000000 -0.000000
RightFoot -10.916312 -5.104069 -1.490171
RightToeBase -1.487078 -0.000000 0.000000
